<svg width="20" height="20" viewBox="0 0 20 20" fill="none" xmlns="http://www.w3.org/2000/svg">
<g clip-path="url(#clip0_207_240)">
<path d="M19.9958 10.0587C19.9958 4.53735 15.5192 0.060791 9.9979 0.060791C4.47656 0.060791 0 4.53735 0 10.0587C0 15.0493 3.6559 19.1851 8.43573 19.9349V12.9489H5.89709V10.0579H8.43573V7.85665C8.43573 5.35135 9.92875 3.96664 12.2124 3.96664C13.3055 3.96664 14.4503 4.16243 14.4503 4.16243V6.62275H13.1889C11.9467 6.62275 11.5592 7.39342 11.5592 8.18408V10.0587H14.332L13.8887 12.9497H11.5592V19.9358C16.3399 19.1851 19.9958 15.0485 19.9958 10.0587Z" fill="#1877F2"/>
</g>
<defs>
<clipPath id="clip0_207_240">
<rect width="19.9958" height="19.9958" fill="white"/>
</clipPath>
</defs>
</svg>
