<svg width="20" height="20" viewBox="0 0 20 20" fill="none" xmlns="http://www.w3.org/2000/svg">
<path d="M18.7961 10.2061C18.7961 9.55629 18.7378 8.93142 18.6294 8.33154H9.99792V11.8808H14.9302C14.7136 13.0222 14.0637 13.9887 13.0889 14.6386V16.9464H16.0633C17.7963 15.3467 18.7961 12.9972 18.7961 10.2061Z" fill="#4285F4"/>
<path d="M9.9979 19.1627C12.4724 19.1627 14.5469 18.3462 16.0633 16.9465L13.0889 14.6386C12.2724 15.1885 11.231 15.5218 9.9979 15.5218C7.61507 15.5218 5.59049 13.9138 4.86564 11.7476H1.81628V14.1137C3.3243 17.1048 6.41532 19.1627 9.9979 19.1627Z" fill="#34A853"/>
<path d="M4.86562 11.7392C4.68232 11.1893 4.57401 10.6061 4.57401 9.99785C4.57401 9.38965 4.68232 8.80643 4.86562 8.25655V5.89038H1.81626C1.19139 7.12346 0.83313 8.51483 0.83313 9.99785C0.83313 11.4809 1.19139 12.8722 1.81626 14.1053L4.19076 12.2557L4.86562 11.7392Z" fill="#FBBC05"/>
<path d="M9.9979 4.48236C11.3476 4.48236 12.5474 4.94893 13.5055 5.84874L16.1299 3.22429C14.5386 1.74127 12.4724 0.83313 9.9979 0.83313C6.41532 0.83313 3.3243 2.89103 1.81628 5.8904L4.86564 8.25657C5.59049 6.09036 7.61507 4.48236 9.9979 4.48236Z" fill="#EA4335"/>
</svg>
