<svg width="32" height="32" viewBox="0 0 32 32" fill="none" xmlns="http://www.w3.org/2000/svg">
<path d="M14.6661 26.6656C12.3249 26.6727 10.0666 25.7996 8.33902 24.2196C6.61144 22.6395 5.5408 20.4679 5.33943 18.1354C5.13806 15.8029 5.82068 13.4799 7.25191 11.6272C8.68313 9.77445 10.7584 8.52727 13.0661 8.13301C20.6658 6.66641 22.6658 5.9731 25.3323 2.66656C26.6656 5.33313 27.9989 8.23968 27.9989 13.3328C27.9989 20.6658 21.6258 26.6656 14.6661 26.6656Z" stroke="white" stroke-width="2.66656" stroke-linecap="round" stroke-linejoin="round"/>
<path d="M2.66656 27.9989C2.66656 23.9991 5.13313 20.8525 9.43963 19.9992C12.6662 19.3593 15.9994 17.3327 17.3326 15.9994" stroke="white" stroke-width="2.66656" stroke-linecap="round" stroke-linejoin="round"/>
</svg>
